#N canvas 0 50 1366 686 10;
#X obj 67 182 adc~;
#X obj 177 182 noise~;
#N canvas 0 90 1366 726 vocoder 0;
#X obj -155 -107 inlet~;
#X obj -55 -107 inlet~;
#X obj -55 43 s~ carrier;
#X obj -55 15 *~;
#X floatatom 104 119 5 0 0 1 Carrier_amp - -, f 5;
#X msg 265 34 5;
#X obj -155 -75 s~ modulator;
#X obj -153 397 dac~;
#X obj -153 266 *~;
#X obj -153 194 catch~ mixer;
#X floatatom 104 133 5 0 0 1 Mixer_gain - -, f 5;
#X obj -152 305 lop~ 20000;
#X floatatom 104 161 5 0 0 1 LP_cutoff - -, f 5;
#X obj -152 335 lop~ 20000;
#X msg 264 91 700;
#X msg 264 62 300;
#N canvas 0 50 1366 686 range 0;
#N canvas 0 50 1366 686 bandfilter 0;
#X floatatom 150 318 5 0 0 0 Midi - -, f 5;
#X obj 150 342 mtof;
#X floatatom 150 369 5 0 0 0 Freq - -, f 5;
#X obj 76 474 bp~ 100 10;
#X obj 76 504 bp~ 100 10;
#X obj 166 474 bp~ 100 10;
#X obj 166 504 bp~ 100 10;
#X obj 116 616 *~;
#X obj 76 447 r~ modulator;
#X obj 166 447 r~ carrier;
#X obj 116 650 throw~ mixer;
#X obj 76 526 env~;
#X floatatom 76 548 5 0 0 0 - - -, f 5;
#X obj 76 577 dbtorms~;
#X obj 150 291 inlet;
#X obj 300 292 inlet;
#X connect 0 0 1 0;
#X connect 1 0 2 0;
#X connect 2 0 3 1;
#X connect 2 0 4 1;
#X connect 2 0 5 1;
#X connect 2 0 6 1;
#X connect 3 0 4 0;
#X connect 4 0 11 0;
#X connect 5 0 6 0;
#X connect 6 0 7 1;
#X connect 7 0 10 0;
#X connect 8 0 3 0;
#X connect 9 0 5 0;
#X connect 11 0 12 0;
#X connect 12 0 13 0;
#X connect 13 0 7 0;
#X connect 14 0 0 0;
#X connect 15 0 3 2;
#X connect 15 0 4 2;
#X connect 15 0 5 2;
#X connect 15 0 6 2;
#X coords 0 686 1 685 85 60 0;
#X restore 581 223 pd bandfilter;
#X floatatom 567 153 5 0 0 0 - - -, f 5;
#X obj 567 199 + 2;
#X floatatom 678 152 5 0 0 0 - q -, f 5;
#N canvas 0 50 1366 686 bandfilter 0;
#X floatatom 150 318 5 0 0 0 Midi - -, f 5;
#X obj 150 342 mtof;
#X floatatom 150 369 5 0 0 0 Freq - -, f 5;
#X obj 76 474 bp~ 100 10;
#X obj 76 504 bp~ 100 10;
#X obj 166 474 bp~ 100 10;
#X obj 166 504 bp~ 100 10;
#X obj 116 616 *~;
#X obj 76 447 r~ modulator;
#X obj 166 447 r~ carrier;
#X obj 116 650 throw~ mixer;
#X obj 76 526 env~;
#X floatatom 76 548 5 0 0 0 - - -, f 5;
#X obj 76 577 dbtorms~;
#X obj 150 291 inlet;
#X obj 300 292 inlet;
#X connect 0 0 1 0;
#X connect 1 0 2 0;
#X connect 2 0 3 1;
#X connect 2 0 4 1;
#X connect 2 0 5 1;
#X connect 2 0 6 1;
#X connect 3 0 4 0;
#X connect 4 0 11 0;
#X connect 5 0 6 0;
#X connect 6 0 7 1;
#X connect 7 0 10 0;
#X connect 8 0 3 0;
#X connect 9 0 5 0;
#X connect 11 0 12 0;
#X connect 12 0 13 0;
#X connect 13 0 7 0;
#X connect 14 0 0 0;
#X connect 15 0 3 2;
#X connect 15 0 4 2;
#X connect 15 0 5 2;
#X connect 15 0 6 2;
#X coords 0 686 1 685 85 60 0;
#X restore 581 273 pd bandfilter;
#X obj 567 249 + 2;
#N canvas 0 50 1366 686 bandfilter 0;
#X floatatom 150 318 5 0 0 0 Midi - -, f 5;
#X obj 150 342 mtof;
#X floatatom 150 369 5 0 0 0 Freq - -, f 5;
#X obj 76 474 bp~ 100 10;
#X obj 76 504 bp~ 100 10;
#X obj 166 474 bp~ 100 10;
#X obj 166 504 bp~ 100 10;
#X obj 116 616 *~;
#X obj 76 447 r~ modulator;
#X obj 166 447 r~ carrier;
#X obj 116 650 throw~ mixer;
#X obj 76 526 env~;
#X floatatom 76 548 5 0 0 0 - - -, f 5;
#X obj 76 577 dbtorms~;
#X obj 150 291 inlet;
#X obj 300 292 inlet;
#X connect 0 0 1 0;
#X connect 1 0 2 0;
#X connect 2 0 3 1;
#X connect 2 0 4 1;
#X connect 2 0 5 1;
#X connect 2 0 6 1;
#X connect 3 0 4 0;
#X connect 4 0 11 0;
#X connect 5 0 6 0;
#X connect 6 0 7 1;
#X connect 7 0 10 0;
#X connect 8 0 3 0;
#X connect 9 0 5 0;
#X connect 11 0 12 0;
#X connect 12 0 13 0;
#X connect 13 0 7 0;
#X connect 14 0 0 0;
#X connect 15 0 3 2;
#X connect 15 0 4 2;
#X connect 15 0 5 2;
#X connect 15 0 6 2;
#X coords 0 686 1 685 85 60 0;
#X restore 581 323 pd bandfilter;
#X obj 567 299 + 2;
#N canvas 0 50 1366 686 bandfilter 0;
#X floatatom 150 318 5 0 0 0 Midi - -, f 5;
#X obj 150 342 mtof;
#X floatatom 150 369 5 0 0 0 Freq - -, f 5;
#X obj 76 474 bp~ 100 10;
#X obj 76 504 bp~ 100 10;
#X obj 166 474 bp~ 100 10;
#X obj 166 504 bp~ 100 10;
#X obj 116 616 *~;
#X obj 76 447 r~ modulator;
#X obj 166 447 r~ carrier;
#X obj 116 650 throw~ mixer;
#X obj 76 526 env~;
#X floatatom 76 548 5 0 0 0 - - -, f 5;
#X obj 76 577 dbtorms~;
#X obj 150 291 inlet;
#X obj 300 292 inlet;
#X connect 0 0 1 0;
#X connect 1 0 2 0;
#X connect 2 0 3 1;
#X connect 2 0 4 1;
#X connect 2 0 5 1;
#X connect 2 0 6 1;
#X connect 3 0 4 0;
#X connect 4 0 11 0;
#X connect 5 0 6 0;
#X connect 6 0 7 1;
#X connect 7 0 10 0;
#X connect 8 0 3 0;
#X connect 9 0 5 0;
#X connect 11 0 12 0;
#X connect 12 0 13 0;
#X connect 13 0 7 0;
#X connect 14 0 0 0;
#X connect 15 0 3 2;
#X connect 15 0 4 2;
#X connect 15 0 5 2;
#X connect 15 0 6 2;
#X coords 0 686 1 685 85 60 0;
#X restore 581 373 pd bandfilter;
#X obj 567 349 + 2;
#N canvas -8 -8 1366 686 bandfilter 0;
#X floatatom 150 318 5 0 0 0 Midi - -, f 5;
#X obj 150 342 mtof;
#X floatatom 150 369 5 0 0 0 Freq - -, f 5;
#X obj 76 474 bp~ 100 10;
#X obj 76 504 bp~ 100 10;
#X obj 166 474 bp~ 100 10;
#X obj 166 504 bp~ 100 10;
#X obj 116 616 *~;
#X obj 76 447 r~ modulator;
#X obj 166 447 r~ carrier;
#X obj 116 650 throw~ mixer;
#X obj 76 526 env~;
#X floatatom 76 548 5 0 0 0 - - -, f 5;
#X obj 76 577 dbtorms~;
#X obj 150 291 inlet;
#X obj 300 292 inlet;
#X connect 0 0 1 0;
#X connect 1 0 2 0;
#X connect 2 0 3 1;
#X connect 2 0 4 1;
#X connect 2 0 5 1;
#X connect 2 0 6 1;
#X connect 3 0 4 0;
#X connect 4 0 11 0;
#X connect 5 0 6 0;
#X connect 6 0 7 1;
#X connect 7 0 10 0;
#X connect 8 0 3 0;
#X connect 9 0 5 0;
#X connect 11 0 12 0;
#X connect 12 0 13 0;
#X connect 13 0 7 0;
#X connect 14 0 0 0;
#X connect 15 0 3 2;
#X connect 15 0 4 2;
#X connect 15 0 5 2;
#X connect 15 0 6 2;
#X coords 0 686 1 685 85 60 0;
#X restore 581 176 pd bandfilter;
#X obj 567 116 inlet;
#X connect 1 0 2 0;
#X connect 1 0 10 0;
#X connect 2 0 0 0;
#X connect 2 0 5 0;
#X connect 3 0 10 1;
#X connect 3 0 0 1;
#X connect 3 0 4 1;
#X connect 3 0 6 1;
#X connect 3 0 8 1;
#X connect 5 0 4 0;
#X connect 5 0 7 0;
#X connect 7 0 6 0;
#X connect 7 0 9 0;
#X connect 9 0 8 0;
#X connect 11 0 1 0;
#X restore 401 149 pd range;
#X msg 401 124 30;
#N canvas 0 50 1366 686 range 0;
#N canvas 0 50 1366 686 bandfilter 0;
#X floatatom 150 318 5 0 0 0 Midi - -, f 5;
#X obj 150 342 mtof;
#X floatatom 150 369 5 0 0 0 Freq - -, f 5;
#X obj 76 474 bp~ 100 10;
#X obj 76 504 bp~ 100 10;
#X obj 166 474 bp~ 100 10;
#X obj 166 504 bp~ 100 10;
#X obj 116 616 *~;
#X obj 76 447 r~ modulator;
#X obj 166 447 r~ carrier;
#X obj 116 650 throw~ mixer;
#X obj 76 526 env~;
#X floatatom 76 548 5 0 0 0 - - -, f 5;
#X obj 76 577 dbtorms~;
#X obj 150 291 inlet;
#X obj 300 292 inlet;
#X connect 0 0 1 0;
#X connect 1 0 2 0;
#X connect 2 0 3 1;
#X connect 2 0 4 1;
#X connect 2 0 5 1;
#X connect 2 0 6 1;
#X connect 3 0 4 0;
#X connect 4 0 11 0;
#X connect 5 0 6 0;
#X connect 6 0 7 1;
#X connect 7 0 10 0;
#X connect 8 0 3 0;
#X connect 9 0 5 0;
#X connect 11 0 12 0;
#X connect 12 0 13 0;
#X connect 13 0 7 0;
#X connect 14 0 0 0;
#X connect 15 0 3 2;
#X connect 15 0 4 2;
#X connect 15 0 5 2;
#X connect 15 0 6 2;
#X coords 0 686 1 685 85 60 0;
#X restore 581 223 pd bandfilter;
#X floatatom 567 153 5 0 0 0 - - -, f 5;
#X obj 567 199 + 2;
#X floatatom 678 152 5 0 0 0 - q -, f 5;
#N canvas 0 50 1366 686 bandfilter 0;
#X floatatom 150 318 5 0 0 0 Midi - -, f 5;
#X obj 150 342 mtof;
#X floatatom 150 369 5 0 0 0 Freq - -, f 5;
#X obj 76 474 bp~ 100 10;
#X obj 76 504 bp~ 100 10;
#X obj 166 474 bp~ 100 10;
#X obj 166 504 bp~ 100 10;
#X obj 116 616 *~;
#X obj 76 447 r~ modulator;
#X obj 166 447 r~ carrier;
#X obj 116 650 throw~ mixer;
#X obj 76 526 env~;
#X floatatom 76 548 5 0 0 0 - - -, f 5;
#X obj 76 577 dbtorms~;
#X obj 150 291 inlet;
#X obj 300 292 inlet;
#X connect 0 0 1 0;
#X connect 1 0 2 0;
#X connect 2 0 3 1;
#X connect 2 0 4 1;
#X connect 2 0 5 1;
#X connect 2 0 6 1;
#X connect 3 0 4 0;
#X connect 4 0 11 0;
#X connect 5 0 6 0;
#X connect 6 0 7 1;
#X connect 7 0 10 0;
#X connect 8 0 3 0;
#X connect 9 0 5 0;
#X connect 11 0 12 0;
#X connect 12 0 13 0;
#X connect 13 0 7 0;
#X connect 14 0 0 0;
#X connect 15 0 3 2;
#X connect 15 0 4 2;
#X connect 15 0 5 2;
#X connect 15 0 6 2;
#X coords 0 686 1 685 85 60 0;
#X restore 581 273 pd bandfilter;
#X obj 567 249 + 2;
#N canvas 0 50 1366 686 bandfilter 0;
#X floatatom 150 318 5 0 0 0 Midi - -, f 5;
#X obj 150 342 mtof;
#X floatatom 150 369 5 0 0 0 Freq - -, f 5;
#X obj 76 474 bp~ 100 10;
#X obj 76 504 bp~ 100 10;
#X obj 166 474 bp~ 100 10;
#X obj 166 504 bp~ 100 10;
#X obj 116 616 *~;
#X obj 76 447 r~ modulator;
#X obj 166 447 r~ carrier;
#X obj 116 650 throw~ mixer;
#X obj 76 526 env~;
#X floatatom 76 548 5 0 0 0 - - -, f 5;
#X obj 76 577 dbtorms~;
#X obj 150 291 inlet;
#X obj 300 292 inlet;
#X connect 0 0 1 0;
#X connect 1 0 2 0;
#X connect 2 0 3 1;
#X connect 2 0 4 1;
#X connect 2 0 5 1;
#X connect 2 0 6 1;
#X connect 3 0 4 0;
#X connect 4 0 11 0;
#X connect 5 0 6 0;
#X connect 6 0 7 1;
#X connect 7 0 10 0;
#X connect 8 0 3 0;
#X connect 9 0 5 0;
#X connect 11 0 12 0;
#X connect 12 0 13 0;
#X connect 13 0 7 0;
#X connect 14 0 0 0;
#X connect 15 0 3 2;
#X connect 15 0 4 2;
#X connect 15 0 5 2;
#X connect 15 0 6 2;
#X coords 0 686 1 685 85 60 0;
#X restore 581 323 pd bandfilter;
#X obj 567 299 + 2;
#N canvas 0 50 1366 686 bandfilter 0;
#X floatatom 150 318 5 0 0 0 Midi - -, f 5;
#X obj 150 342 mtof;
#X floatatom 150 369 5 0 0 0 Freq - -, f 5;
#X obj 76 474 bp~ 100 10;
#X obj 76 504 bp~ 100 10;
#X obj 166 474 bp~ 100 10;
#X obj 166 504 bp~ 100 10;
#X obj 116 616 *~;
#X obj 76 447 r~ modulator;
#X obj 166 447 r~ carrier;
#X obj 116 650 throw~ mixer;
#X obj 76 526 env~;
#X floatatom 76 548 5 0 0 0 - - -, f 5;
#X obj 76 577 dbtorms~;
#X obj 150 291 inlet;
#X obj 300 292 inlet;
#X connect 0 0 1 0;
#X connect 1 0 2 0;
#X connect 2 0 3 1;
#X connect 2 0 4 1;
#X connect 2 0 5 1;
#X connect 2 0 6 1;
#X connect 3 0 4 0;
#X connect 4 0 11 0;
#X connect 5 0 6 0;
#X connect 6 0 7 1;
#X connect 7 0 10 0;
#X connect 8 0 3 0;
#X connect 9 0 5 0;
#X connect 11 0 12 0;
#X connect 12 0 13 0;
#X connect 13 0 7 0;
#X connect 14 0 0 0;
#X connect 15 0 3 2;
#X connect 15 0 4 2;
#X connect 15 0 5 2;
#X connect 15 0 6 2;
#X coords 0 686 1 685 85 60 0;
#X restore 581 373 pd bandfilter;
#X obj 567 349 + 2;
#N canvas 0 50 1366 686 bandfilter 0;
#X floatatom 150 318 5 0 0 0 Midi - -, f 5;
#X obj 150 342 mtof;
#X floatatom 150 369 5 0 0 0 Freq - -, f 5;
#X obj 76 474 bp~ 100 10;
#X obj 76 504 bp~ 100 10;
#X obj 166 474 bp~ 100 10;
#X obj 166 504 bp~ 100 10;
#X obj 116 616 *~;
#X obj 76 447 r~ modulator;
#X obj 166 447 r~ carrier;
#X obj 116 650 throw~ mixer;
#X obj 76 526 env~;
#X floatatom 76 548 5 0 0 0 - - -, f 5;
#X obj 76 577 dbtorms~;
#X obj 150 291 inlet;
#X obj 300 292 inlet;
#X connect 0 0 1 0;
#X connect 1 0 2 0;
#X connect 2 0 3 1;
#X connect 2 0 4 1;
#X connect 2 0 5 1;
#X connect 2 0 6 1;
#X connect 3 0 4 0;
#X connect 4 0 11 0;
#X connect 5 0 6 0;
#X connect 6 0 7 1;
#X connect 7 0 10 0;
#X connect 8 0 3 0;
#X connect 9 0 5 0;
#X connect 11 0 12 0;
#X connect 12 0 13 0;
#X connect 13 0 7 0;
#X connect 14 0 0 0;
#X connect 15 0 3 2;
#X connect 15 0 4 2;
#X connect 15 0 5 2;
#X connect 15 0 6 2;
#X coords 0 686 1 685 85 60 0;
#X restore 581 176 pd bandfilter;
#X obj 567 116 inlet;
#X connect 1 0 2 0;
#X connect 1 0 10 0;
#X connect 2 0 0 0;
#X connect 2 0 5 0;
#X connect 3 0 10 1;
#X connect 3 0 0 1;
#X connect 3 0 4 1;
#X connect 3 0 6 1;
#X connect 3 0 8 1;
#X connect 5 0 4 0;
#X connect 5 0 7 0;
#X connect 7 0 6 0;
#X connect 7 0 9 0;
#X connect 9 0 8 0;
#X connect 11 0 1 0;
#X restore 461 149 pd range;
#N canvas 0 50 1366 686 range 0;
#N canvas 0 50 1366 686 bandfilter 0;
#X floatatom 150 318 5 0 0 0 Midi - -, f 5;
#X obj 150 342 mtof;
#X floatatom 150 369 5 0 0 0 Freq - -, f 5;
#X obj 76 474 bp~ 100 10;
#X obj 76 504 bp~ 100 10;
#X obj 166 474 bp~ 100 10;
#X obj 166 504 bp~ 100 10;
#X obj 116 616 *~;
#X obj 76 447 r~ modulator;
#X obj 166 447 r~ carrier;
#X obj 116 650 throw~ mixer;
#X obj 76 526 env~;
#X floatatom 76 548 5 0 0 0 - - -, f 5;
#X obj 76 577 dbtorms~;
#X obj 150 291 inlet;
#X obj 300 292 inlet;
#X connect 0 0 1 0;
#X connect 1 0 2 0;
#X connect 2 0 3 1;
#X connect 2 0 4 1;
#X connect 2 0 5 1;
#X connect 2 0 6 1;
#X connect 3 0 4 0;
#X connect 4 0 11 0;
#X connect 5 0 6 0;
#X connect 6 0 7 1;
#X connect 7 0 10 0;
#X connect 8 0 3 0;
#X connect 9 0 5 0;
#X connect 11 0 12 0;
#X connect 12 0 13 0;
#X connect 13 0 7 0;
#X connect 14 0 0 0;
#X connect 15 0 3 2;
#X connect 15 0 4 2;
#X connect 15 0 5 2;
#X connect 15 0 6 2;
#X coords 0 686 1 685 85 60 0;
#X restore 581 223 pd bandfilter;
#X floatatom 567 153 5 0 0 0 - - -, f 5;
#X obj 567 199 + 2;
#X floatatom 678 152 5 0 0 0 - q -, f 5;
#N canvas 0 50 1366 686 bandfilter 0;
#X floatatom 150 318 5 0 0 0 Midi - -, f 5;
#X obj 150 342 mtof;
#X floatatom 150 369 5 0 0 0 Freq - -, f 5;
#X obj 76 474 bp~ 100 10;
#X obj 76 504 bp~ 100 10;
#X obj 166 474 bp~ 100 10;
#X obj 166 504 bp~ 100 10;
#X obj 116 616 *~;
#X obj 76 447 r~ modulator;
#X obj 166 447 r~ carrier;
#X obj 116 650 throw~ mixer;
#X obj 76 526 env~;
#X floatatom 76 548 5 0 0 0 - - -, f 5;
#X obj 76 577 dbtorms~;
#X obj 150 291 inlet;
#X obj 300 292 inlet;
#X connect 0 0 1 0;
#X connect 1 0 2 0;
#X connect 2 0 3 1;
#X connect 2 0 4 1;
#X connect 2 0 5 1;
#X connect 2 0 6 1;
#X connect 3 0 4 0;
#X connect 4 0 11 0;
#X connect 5 0 6 0;
#X connect 6 0 7 1;
#X connect 7 0 10 0;
#X connect 8 0 3 0;
#X connect 9 0 5 0;
#X connect 11 0 12 0;
#X connect 12 0 13 0;
#X connect 13 0 7 0;
#X connect 14 0 0 0;
#X connect 15 0 3 2;
#X connect 15 0 4 2;
#X connect 15 0 5 2;
#X connect 15 0 6 2;
#X coords 0 686 1 685 85 60 0;
#X restore 581 273 pd bandfilter;
#X obj 567 249 + 2;
#N canvas 0 50 1366 686 bandfilter 0;
#X floatatom 150 318 5 0 0 0 Midi - -, f 5;
#X obj 150 342 mtof;
#X floatatom 150 369 5 0 0 0 Freq - -, f 5;
#X obj 76 474 bp~ 100 10;
#X obj 76 504 bp~ 100 10;
#X obj 166 474 bp~ 100 10;
#X obj 166 504 bp~ 100 10;
#X obj 116 616 *~;
#X obj 76 447 r~ modulator;
#X obj 166 447 r~ carrier;
#X obj 116 650 throw~ mixer;
#X obj 76 526 env~;
#X floatatom 76 548 5 0 0 0 - - -, f 5;
#X obj 76 577 dbtorms~;
#X obj 150 291 inlet;
#X obj 300 292 inlet;
#X connect 0 0 1 0;
#X connect 1 0 2 0;
#X connect 2 0 3 1;
#X connect 2 0 4 1;
#X connect 2 0 5 1;
#X connect 2 0 6 1;
#X connect 3 0 4 0;
#X connect 4 0 11 0;
#X connect 5 0 6 0;
#X connect 6 0 7 1;
#X connect 7 0 10 0;
#X connect 8 0 3 0;
#X connect 9 0 5 0;
#X connect 11 0 12 0;
#X connect 12 0 13 0;
#X connect 13 0 7 0;
#X connect 14 0 0 0;
#X connect 15 0 3 2;
#X connect 15 0 4 2;
#X connect 15 0 5 2;
#X connect 15 0 6 2;
#X coords 0 686 1 685 85 60 0;
#X restore 581 323 pd bandfilter;
#X obj 567 299 + 2;
#N canvas 0 50 1366 686 bandfilter 0;
#X floatatom 150 318 5 0 0 0 Midi - -, f 5;
#X obj 150 342 mtof;
#X floatatom 150 369 5 0 0 0 Freq - -, f 5;
#X obj 76 474 bp~ 100 10;
#X obj 76 504 bp~ 100 10;
#X obj 166 474 bp~ 100 10;
#X obj 166 504 bp~ 100 10;
#X obj 116 616 *~;
#X obj 76 447 r~ modulator;
#X obj 166 447 r~ carrier;
#X obj 116 650 throw~ mixer;
#X obj 76 526 env~;
#X floatatom 76 548 5 0 0 0 - - -, f 5;
#X obj 76 577 dbtorms~;
#X obj 150 291 inlet;
#X obj 300 292 inlet;
#X connect 0 0 1 0;
#X connect 1 0 2 0;
#X connect 2 0 3 1;
#X connect 2 0 4 1;
#X connect 2 0 5 1;
#X connect 2 0 6 1;
#X connect 3 0 4 0;
#X connect 4 0 11 0;
#X connect 5 0 6 0;
#X connect 6 0 7 1;
#X connect 7 0 10 0;
#X connect 8 0 3 0;
#X connect 9 0 5 0;
#X connect 11 0 12 0;
#X connect 12 0 13 0;
#X connect 13 0 7 0;
#X connect 14 0 0 0;
#X connect 15 0 3 2;
#X connect 15 0 4 2;
#X connect 15 0 5 2;
#X connect 15 0 6 2;
#X coords 0 686 1 685 85 60 0;
#X restore 581 373 pd bandfilter;
#X obj 567 349 + 2;
#N canvas 0 50 1366 686 bandfilter 0;
#X floatatom 150 318 5 0 0 0 Midi - -, f 5;
#X obj 150 342 mtof;
#X floatatom 150 369 5 0 0 0 Freq - -, f 5;
#X obj 76 474 bp~ 100 10;
#X obj 76 504 bp~ 100 10;
#X obj 166 474 bp~ 100 10;
#X obj 166 504 bp~ 100 10;
#X obj 116 616 *~;
#X obj 76 447 r~ modulator;
#X obj 166 447 r~ carrier;
#X obj 116 650 throw~ mixer;
#X obj 76 526 env~;
#X floatatom 76 548 5 0 0 0 - - -, f 5;
#X obj 76 577 dbtorms~;
#X obj 150 291 inlet;
#X obj 300 292 inlet;
#X connect 0 0 1 0;
#X connect 1 0 2 0;
#X connect 2 0 3 1;
#X connect 2 0 4 1;
#X connect 2 0 5 1;
#X connect 2 0 6 1;
#X connect 3 0 4 0;
#X connect 4 0 11 0;
#X connect 5 0 6 0;
#X connect 6 0 7 1;
#X connect 7 0 10 0;
#X connect 8 0 3 0;
#X connect 9 0 5 0;
#X connect 11 0 12 0;
#X connect 12 0 13 0;
#X connect 13 0 7 0;
#X connect 14 0 0 0;
#X connect 15 0 3 2;
#X connect 15 0 4 2;
#X connect 15 0 5 2;
#X connect 15 0 6 2;
#X coords 0 686 1 685 85 60 0;
#X restore 581 176 pd bandfilter;
#X obj 567 116 inlet;
#X connect 1 0 2 0;
#X connect 1 0 10 0;
#X connect 2 0 0 0;
#X connect 2 0 5 0;
#X connect 3 0 10 1;
#X connect 3 0 0 1;
#X connect 3 0 4 1;
#X connect 3 0 6 1;
#X connect 3 0 8 1;
#X connect 5 0 4 0;
#X connect 5 0 7 0;
#X connect 7 0 6 0;
#X connect 7 0 9 0;
#X connect 9 0 8 0;
#X connect 11 0 1 0;
#X restore 521 149 pd range;
#N canvas 0 50 1366 686 range 0;
#N canvas 0 50 1366 686 bandfilter 0;
#X floatatom 150 318 5 0 0 0 Midi - -, f 5;
#X obj 150 342 mtof;
#X floatatom 150 369 5 0 0 0 Freq - -, f 5;
#X obj 76 474 bp~ 100 10;
#X obj 76 504 bp~ 100 10;
#X obj 166 474 bp~ 100 10;
#X obj 166 504 bp~ 100 10;
#X obj 116 616 *~;
#X obj 76 447 r~ modulator;
#X obj 166 447 r~ carrier;
#X obj 116 650 throw~ mixer;
#X obj 76 526 env~;
#X floatatom 76 548 5 0 0 0 - - -, f 5;
#X obj 76 577 dbtorms~;
#X obj 150 291 inlet;
#X obj 300 292 inlet;
#X connect 0 0 1 0;
#X connect 1 0 2 0;
#X connect 2 0 3 1;
#X connect 2 0 4 1;
#X connect 2 0 5 1;
#X connect 2 0 6 1;
#X connect 3 0 4 0;
#X connect 4 0 11 0;
#X connect 5 0 6 0;
#X connect 6 0 7 1;
#X connect 7 0 10 0;
#X connect 8 0 3 0;
#X connect 9 0 5 0;
#X connect 11 0 12 0;
#X connect 12 0 13 0;
#X connect 13 0 7 0;
#X connect 14 0 0 0;
#X connect 15 0 3 2;
#X connect 15 0 4 2;
#X connect 15 0 5 2;
#X connect 15 0 6 2;
#X coords 0 686 1 685 85 60 0;
#X restore 581 223 pd bandfilter;
#X floatatom 567 153 5 0 0 0 - - -, f 5;
#X obj 567 199 + 2;
#X floatatom 678 152 5 0 0 0 - q -, f 5;
#N canvas 0 50 1366 686 bandfilter 0;
#X floatatom 150 318 5 0 0 0 Midi - -, f 5;
#X obj 150 342 mtof;
#X floatatom 150 369 5 0 0 0 Freq - -, f 5;
#X obj 76 474 bp~ 100 10;
#X obj 76 504 bp~ 100 10;
#X obj 166 474 bp~ 100 10;
#X obj 166 504 bp~ 100 10;
#X obj 116 616 *~;
#X obj 76 447 r~ modulator;
#X obj 166 447 r~ carrier;
#X obj 116 650 throw~ mixer;
#X obj 76 526 env~;
#X floatatom 76 548 5 0 0 0 - - -, f 5;
#X obj 76 577 dbtorms~;
#X obj 150 291 inlet;
#X obj 300 292 inlet;
#X connect 0 0 1 0;
#X connect 1 0 2 0;
#X connect 2 0 3 1;
#X connect 2 0 4 1;
#X connect 2 0 5 1;
#X connect 2 0 6 1;
#X connect 3 0 4 0;
#X connect 4 0 11 0;
#X connect 5 0 6 0;
#X connect 6 0 7 1;
#X connect 7 0 10 0;
#X connect 8 0 3 0;
#X connect 9 0 5 0;
#X connect 11 0 12 0;
#X connect 12 0 13 0;
#X connect 13 0 7 0;
#X connect 14 0 0 0;
#X connect 15 0 3 2;
#X connect 15 0 4 2;
#X connect 15 0 5 2;
#X connect 15 0 6 2;
#X coords 0 686 1 685 85 60 0;
#X restore 581 273 pd bandfilter;
#X obj 567 249 + 2;
#N canvas 0 50 1366 686 bandfilter 0;
#X floatatom 150 318 5 0 0 0 Midi - -, f 5;
#X obj 150 342 mtof;
#X floatatom 150 369 5 0 0 0 Freq - -, f 5;
#X obj 76 474 bp~ 100 10;
#X obj 76 504 bp~ 100 10;
#X obj 166 474 bp~ 100 10;
#X obj 166 504 bp~ 100 10;
#X obj 116 616 *~;
#X obj 76 447 r~ modulator;
#X obj 166 447 r~ carrier;
#X obj 116 650 throw~ mixer;
#X obj 76 526 env~;
#X floatatom 76 548 5 0 0 0 - - -, f 5;
#X obj 76 577 dbtorms~;
#X obj 150 291 inlet;
#X obj 300 292 inlet;
#X connect 0 0 1 0;
#X connect 1 0 2 0;
#X connect 2 0 3 1;
#X connect 2 0 4 1;
#X connect 2 0 5 1;
#X connect 2 0 6 1;
#X connect 3 0 4 0;
#X connect 4 0 11 0;
#X connect 5 0 6 0;
#X connect 6 0 7 1;
#X connect 7 0 10 0;
#X connect 8 0 3 0;
#X connect 9 0 5 0;
#X connect 11 0 12 0;
#X connect 12 0 13 0;
#X connect 13 0 7 0;
#X connect 14 0 0 0;
#X connect 15 0 3 2;
#X connect 15 0 4 2;
#X connect 15 0 5 2;
#X connect 15 0 6 2;
#X coords 0 686 1 685 85 60 0;
#X restore 581 323 pd bandfilter;
#X obj 567 299 + 2;
#N canvas 0 50 1366 686 bandfilter 0;
#X floatatom 150 318 5 0 0 0 Midi - -, f 5;
#X obj 150 342 mtof;
#X floatatom 150 369 5 0 0 0 Freq - -, f 5;
#X obj 76 474 bp~ 100 10;
#X obj 76 504 bp~ 100 10;
#X obj 166 474 bp~ 100 10;
#X obj 166 504 bp~ 100 10;
#X obj 116 616 *~;
#X obj 76 447 r~ modulator;
#X obj 166 447 r~ carrier;
#X obj 116 650 throw~ mixer;
#X obj 76 526 env~;
#X floatatom 76 548 5 0 0 0 - - -, f 5;
#X obj 76 577 dbtorms~;
#X obj 150 291 inlet;
#X obj 300 292 inlet;
#X connect 0 0 1 0;
#X connect 1 0 2 0;
#X connect 2 0 3 1;
#X connect 2 0 4 1;
#X connect 2 0 5 1;
#X connect 2 0 6 1;
#X connect 3 0 4 0;
#X connect 4 0 11 0;
#X connect 5 0 6 0;
#X connect 6 0 7 1;
#X connect 7 0 10 0;
#X connect 8 0 3 0;
#X connect 9 0 5 0;
#X connect 11 0 12 0;
#X connect 12 0 13 0;
#X connect 13 0 7 0;
#X connect 14 0 0 0;
#X connect 15 0 3 2;
#X connect 15 0 4 2;
#X connect 15 0 5 2;
#X connect 15 0 6 2;
#X coords 0 686 1 685 85 60 0;
#X restore 581 373 pd bandfilter;
#X obj 567 349 + 2;
#N canvas 0 50 1366 686 bandfilter 0;
#X floatatom 150 318 5 0 0 0 Midi - -, f 5;
#X obj 150 342 mtof;
#X floatatom 150 369 5 0 0 0 Freq - -, f 5;
#X obj 76 474 bp~ 100 10;
#X obj 76 504 bp~ 100 10;
#X obj 166 474 bp~ 100 10;
#X obj 166 504 bp~ 100 10;
#X obj 116 616 *~;
#X obj 76 447 r~ modulator;
#X obj 166 447 r~ carrier;
#X obj 116 650 throw~ mixer;
#X obj 76 526 env~;
#X floatatom 76 548 5 0 0 0 - - -, f 5;
#X obj 76 577 dbtorms~;
#X obj 150 291 inlet;
#X obj 300 292 inlet;
#X connect 0 0 1 0;
#X connect 1 0 2 0;
#X connect 2 0 3 1;
#X connect 2 0 4 1;
#X connect 2 0 5 1;
#X connect 2 0 6 1;
#X connect 3 0 4 0;
#X connect 4 0 11 0;
#X connect 5 0 6 0;
#X connect 6 0 7 1;
#X connect 7 0 10 0;
#X connect 8 0 3 0;
#X connect 9 0 5 0;
#X connect 11 0 12 0;
#X connect 12 0 13 0;
#X connect 13 0 7 0;
#X connect 14 0 0 0;
#X connect 15 0 3 2;
#X connect 15 0 4 2;
#X connect 15 0 5 2;
#X connect 15 0 6 2;
#X coords 0 686 1 685 85 60 0;
#X restore 581 176 pd bandfilter;
#X obj 567 116 inlet;
#X connect 1 0 2 0;
#X connect 1 0 10 0;
#X connect 2 0 0 0;
#X connect 2 0 5 0;
#X connect 3 0 10 1;
#X connect 3 0 0 1;
#X connect 3 0 4 1;
#X connect 3 0 6 1;
#X connect 3 0 8 1;
#X connect 5 0 4 0;
#X connect 5 0 7 0;
#X connect 7 0 6 0;
#X connect 7 0 9 0;
#X connect 9 0 8 0;
#X connect 11 0 1 0;
#X restore 581 149 pd range;
#N canvas 0 50 1366 686 range 0;
#N canvas 0 50 1366 686 bandfilter 0;
#X floatatom 150 318 5 0 0 0 Midi - -, f 5;
#X obj 150 342 mtof;
#X floatatom 150 369 5 0 0 0 Freq - -, f 5;
#X obj 76 474 bp~ 100 10;
#X obj 76 504 bp~ 100 10;
#X obj 166 474 bp~ 100 10;
#X obj 166 504 bp~ 100 10;
#X obj 116 616 *~;
#X obj 76 447 r~ modulator;
#X obj 166 447 r~ carrier;
#X obj 116 650 throw~ mixer;
#X obj 76 526 env~;
#X floatatom 76 548 5 0 0 0 - - -, f 5;
#X obj 76 577 dbtorms~;
#X obj 150 291 inlet;
#X obj 300 292 inlet;
#X connect 0 0 1 0;
#X connect 1 0 2 0;
#X connect 2 0 3 1;
#X connect 2 0 4 1;
#X connect 2 0 5 1;
#X connect 2 0 6 1;
#X connect 3 0 4 0;
#X connect 4 0 11 0;
#X connect 5 0 6 0;
#X connect 6 0 7 1;
#X connect 7 0 10 0;
#X connect 8 0 3 0;
#X connect 9 0 5 0;
#X connect 11 0 12 0;
#X connect 12 0 13 0;
#X connect 13 0 7 0;
#X connect 14 0 0 0;
#X connect 15 0 3 2;
#X connect 15 0 4 2;
#X connect 15 0 5 2;
#X connect 15 0 6 2;
#X coords 0 686 1 685 85 60 0;
#X restore 581 223 pd bandfilter;
#X floatatom 567 153 5 0 0 0 - - -, f 5;
#X obj 567 199 + 2;
#X floatatom 678 152 5 0 0 0 - q -, f 5;
#N canvas 0 50 1366 686 bandfilter 0;
#X floatatom 150 318 5 0 0 0 Midi - -, f 5;
#X obj 150 342 mtof;
#X floatatom 150 369 5 0 0 0 Freq - -, f 5;
#X obj 76 474 bp~ 100 10;
#X obj 76 504 bp~ 100 10;
#X obj 166 474 bp~ 100 10;
#X obj 166 504 bp~ 100 10;
#X obj 116 616 *~;
#X obj 76 447 r~ modulator;
#X obj 166 447 r~ carrier;
#X obj 116 650 throw~ mixer;
#X obj 76 526 env~;
#X floatatom 76 548 5 0 0 0 - - -, f 5;
#X obj 76 577 dbtorms~;
#X obj 150 291 inlet;
#X obj 300 292 inlet;
#X connect 0 0 1 0;
#X connect 1 0 2 0;
#X connect 2 0 3 1;
#X connect 2 0 4 1;
#X connect 2 0 5 1;
#X connect 2 0 6 1;
#X connect 3 0 4 0;
#X connect 4 0 11 0;
#X connect 5 0 6 0;
#X connect 6 0 7 1;
#X connect 7 0 10 0;
#X connect 8 0 3 0;
#X connect 9 0 5 0;
#X connect 11 0 12 0;
#X connect 12 0 13 0;
#X connect 13 0 7 0;
#X connect 14 0 0 0;
#X connect 15 0 3 2;
#X connect 15 0 4 2;
#X connect 15 0 5 2;
#X connect 15 0 6 2;
#X coords 0 686 1 685 85 60 0;
#X restore 581 273 pd bandfilter;
#X obj 567 249 + 2;
#N canvas 0 50 1366 686 bandfilter 0;
#X floatatom 150 318 5 0 0 0 Midi - -, f 5;
#X obj 150 342 mtof;
#X floatatom 150 369 5 0 0 0 Freq - -, f 5;
#X obj 76 474 bp~ 100 10;
#X obj 76 504 bp~ 100 10;
#X obj 166 474 bp~ 100 10;
#X obj 166 504 bp~ 100 10;
#X obj 116 616 *~;
#X obj 76 447 r~ modulator;
#X obj 166 447 r~ carrier;
#X obj 116 650 throw~ mixer;
#X obj 76 526 env~;
#X floatatom 76 548 5 0 0 0 - - -, f 5;
#X obj 76 577 dbtorms~;
#X obj 150 291 inlet;
#X obj 300 292 inlet;
#X connect 0 0 1 0;
#X connect 1 0 2 0;
#X connect 2 0 3 1;
#X connect 2 0 4 1;
#X connect 2 0 5 1;
#X connect 2 0 6 1;
#X connect 3 0 4 0;
#X connect 4 0 11 0;
#X connect 5 0 6 0;
#X connect 6 0 7 1;
#X connect 7 0 10 0;
#X connect 8 0 3 0;
#X connect 9 0 5 0;
#X connect 11 0 12 0;
#X connect 12 0 13 0;
#X connect 13 0 7 0;
#X connect 14 0 0 0;
#X connect 15 0 3 2;
#X connect 15 0 4 2;
#X connect 15 0 5 2;
#X connect 15 0 6 2;
#X coords 0 686 1 685 85 60 0;
#X restore 581 323 pd bandfilter;
#X obj 567 299 + 2;
#N canvas 0 50 1366 686 bandfilter 0;
#X floatatom 150 318 5 0 0 0 Midi - -, f 5;
#X obj 150 342 mtof;
#X floatatom 150 369 5 0 0 0 Freq - -, f 5;
#X obj 76 474 bp~ 100 10;
#X obj 76 504 bp~ 100 10;
#X obj 166 474 bp~ 100 10;
#X obj 166 504 bp~ 100 10;
#X obj 116 616 *~;
#X obj 76 447 r~ modulator;
#X obj 166 447 r~ carrier;
#X obj 116 650 throw~ mixer;
#X obj 76 526 env~;
#X floatatom 76 548 5 0 0 0 - - -, f 5;
#X obj 76 577 dbtorms~;
#X obj 150 291 inlet;
#X obj 300 292 inlet;
#X connect 0 0 1 0;
#X connect 1 0 2 0;
#X connect 2 0 3 1;
#X connect 2 0 4 1;
#X connect 2 0 5 1;
#X connect 2 0 6 1;
#X connect 3 0 4 0;
#X connect 4 0 11 0;
#X connect 5 0 6 0;
#X connect 6 0 7 1;
#X connect 7 0 10 0;
#X connect 8 0 3 0;
#X connect 9 0 5 0;
#X connect 11 0 12 0;
#X connect 12 0 13 0;
#X connect 13 0 7 0;
#X connect 14 0 0 0;
#X connect 15 0 3 2;
#X connect 15 0 4 2;
#X connect 15 0 5 2;
#X connect 15 0 6 2;
#X coords 0 686 1 685 85 60 0;
#X restore 581 373 pd bandfilter;
#X obj 567 349 + 2;
#N canvas 0 50 1366 686 bandfilter 0;
#X floatatom 150 318 5 0 0 0 Midi - -, f 5;
#X obj 150 342 mtof;
#X floatatom 150 369 5 0 0 0 Freq - -, f 5;
#X obj 76 474 bp~ 100 10;
#X obj 76 504 bp~ 100 10;
#X obj 166 474 bp~ 100 10;
#X obj 166 504 bp~ 100 10;
#X obj 116 616 *~;
#X obj 76 447 r~ modulator;
#X obj 166 447 r~ carrier;
#X obj 116 650 throw~ mixer;
#X obj 76 526 env~;
#X floatatom 76 548 5 0 0 0 - - -, f 5;
#X obj 76 577 dbtorms~;
#X obj 150 291 inlet;
#X obj 300 292 inlet;
#X connect 0 0 1 0;
#X connect 1 0 2 0;
#X connect 2 0 3 1;
#X connect 2 0 4 1;
#X connect 2 0 5 1;
#X connect 2 0 6 1;
#X connect 3 0 4 0;
#X connect 4 0 11 0;
#X connect 5 0 6 0;
#X connect 6 0 7 1;
#X connect 7 0 10 0;
#X connect 8 0 3 0;
#X connect 9 0 5 0;
#X connect 11 0 12 0;
#X connect 12 0 13 0;
#X connect 13 0 7 0;
#X connect 14 0 0 0;
#X connect 15 0 3 2;
#X connect 15 0 4 2;
#X connect 15 0 5 2;
#X connect 15 0 6 2;
#X coords 0 686 1 685 85 60 0;
#X restore 581 176 pd bandfilter;
#X obj 567 116 inlet;
#X connect 1 0 2 0;
#X connect 1 0 10 0;
#X connect 2 0 0 0;
#X connect 2 0 5 0;
#X connect 3 0 10 1;
#X connect 3 0 0 1;
#X connect 3 0 4 1;
#X connect 3 0 6 1;
#X connect 3 0 8 1;
#X connect 5 0 4 0;
#X connect 5 0 7 0;
#X connect 7 0 6 0;
#X connect 7 0 9 0;
#X connect 9 0 8 0;
#X connect 11 0 1 0;
#X restore 641 149 pd range;
#N canvas 0 50 1366 686 range 0;
#N canvas 0 50 1366 686 bandfilter 0;
#X floatatom 150 318 5 0 0 0 Midi - -, f 5;
#X obj 150 342 mtof;
#X floatatom 150 369 5 0 0 0 Freq - -, f 5;
#X obj 76 474 bp~ 100 10;
#X obj 76 504 bp~ 100 10;
#X obj 166 474 bp~ 100 10;
#X obj 166 504 bp~ 100 10;
#X obj 116 616 *~;
#X obj 76 447 r~ modulator;
#X obj 166 447 r~ carrier;
#X obj 116 650 throw~ mixer;
#X obj 76 526 env~;
#X floatatom 76 548 5 0 0 0 - - -, f 5;
#X obj 76 577 dbtorms~;
#X obj 150 291 inlet;
#X obj 300 292 inlet;
#X connect 0 0 1 0;
#X connect 1 0 2 0;
#X connect 2 0 3 1;
#X connect 2 0 4 1;
#X connect 2 0 5 1;
#X connect 2 0 6 1;
#X connect 3 0 4 0;
#X connect 4 0 11 0;
#X connect 5 0 6 0;
#X connect 6 0 7 1;
#X connect 7 0 10 0;
#X connect 8 0 3 0;
#X connect 9 0 5 0;
#X connect 11 0 12 0;
#X connect 12 0 13 0;
#X connect 13 0 7 0;
#X connect 14 0 0 0;
#X connect 15 0 3 2;
#X connect 15 0 4 2;
#X connect 15 0 5 2;
#X connect 15 0 6 2;
#X coords 0 686 1 685 85 60 0;
#X restore 581 223 pd bandfilter;
#X floatatom 567 153 5 0 0 0 - - -, f 5;
#X obj 567 199 + 2;
#X floatatom 678 152 5 0 0 0 - q -, f 5;
#N canvas 0 50 1366 686 bandfilter 0;
#X floatatom 150 318 5 0 0 0 Midi - -, f 5;
#X obj 150 342 mtof;
#X floatatom 150 369 5 0 0 0 Freq - -, f 5;
#X obj 76 474 bp~ 100 10;
#X obj 76 504 bp~ 100 10;
#X obj 166 474 bp~ 100 10;
#X obj 166 504 bp~ 100 10;
#X obj 116 616 *~;
#X obj 76 447 r~ modulator;
#X obj 166 447 r~ carrier;
#X obj 116 650 throw~ mixer;
#X obj 76 526 env~;
#X floatatom 76 548 5 0 0 0 - - -, f 5;
#X obj 76 577 dbtorms~;
#X obj 150 291 inlet;
#X obj 300 292 inlet;
#X connect 0 0 1 0;
#X connect 1 0 2 0;
#X connect 2 0 3 1;
#X connect 2 0 4 1;
#X connect 2 0 5 1;
#X connect 2 0 6 1;
#X connect 3 0 4 0;
#X connect 4 0 11 0;
#X connect 5 0 6 0;
#X connect 6 0 7 1;
#X connect 7 0 10 0;
#X connect 8 0 3 0;
#X connect 9 0 5 0;
#X connect 11 0 12 0;
#X connect 12 0 13 0;
#X connect 13 0 7 0;
#X connect 14 0 0 0;
#X connect 15 0 3 2;
#X connect 15 0 4 2;
#X connect 15 0 5 2;
#X connect 15 0 6 2;
#X coords 0 686 1 685 85 60 0;
#X restore 581 273 pd bandfilter;
#X obj 567 249 + 2;
#N canvas 0 50 1366 686 bandfilter 0;
#X floatatom 150 318 5 0 0 0 Midi - -, f 5;
#X obj 150 342 mtof;
#X floatatom 150 369 5 0 0 0 Freq - -, f 5;
#X obj 76 474 bp~ 100 10;
#X obj 76 504 bp~ 100 10;
#X obj 166 474 bp~ 100 10;
#X obj 166 504 bp~ 100 10;
#X obj 116 616 *~;
#X obj 76 447 r~ modulator;
#X obj 166 447 r~ carrier;
#X obj 116 650 throw~ mixer;
#X obj 76 526 env~;
#X floatatom 76 548 5 0 0 0 - - -, f 5;
#X obj 76 577 dbtorms~;
#X obj 150 291 inlet;
#X obj 300 292 inlet;
#X connect 0 0 1 0;
#X connect 1 0 2 0;
#X connect 2 0 3 1;
#X connect 2 0 4 1;
#X connect 2 0 5 1;
#X connect 2 0 6 1;
#X connect 3 0 4 0;
#X connect 4 0 11 0;
#X connect 5 0 6 0;
#X connect 6 0 7 1;
#X connect 7 0 10 0;
#X connect 8 0 3 0;
#X connect 9 0 5 0;
#X connect 11 0 12 0;
#X connect 12 0 13 0;
#X connect 13 0 7 0;
#X connect 14 0 0 0;
#X connect 15 0 3 2;
#X connect 15 0 4 2;
#X connect 15 0 5 2;
#X connect 15 0 6 2;
#X coords 0 686 1 685 85 60 0;
#X restore 581 323 pd bandfilter;
#X obj 567 299 + 2;
#N canvas 0 50 1366 686 bandfilter 0;
#X floatatom 150 318 5 0 0 0 Midi - -, f 5;
#X obj 150 342 mtof;
#X floatatom 150 369 5 0 0 0 Freq - -, f 5;
#X obj 76 474 bp~ 100 10;
#X obj 76 504 bp~ 100 10;
#X obj 166 474 bp~ 100 10;
#X obj 166 504 bp~ 100 10;
#X obj 116 616 *~;
#X obj 76 447 r~ modulator;
#X obj 166 447 r~ carrier;
#X obj 116 650 throw~ mixer;
#X obj 76 526 env~;
#X floatatom 76 548 5 0 0 0 - - -, f 5;
#X obj 76 577 dbtorms~;
#X obj 150 291 inlet;
#X obj 300 292 inlet;
#X connect 0 0 1 0;
#X connect 1 0 2 0;
#X connect 2 0 3 1;
#X connect 2 0 4 1;
#X connect 2 0 5 1;
#X connect 2 0 6 1;
#X connect 3 0 4 0;
#X connect 4 0 11 0;
#X connect 5 0 6 0;
#X connect 6 0 7 1;
#X connect 7 0 10 0;
#X connect 8 0 3 0;
#X connect 9 0 5 0;
#X connect 11 0 12 0;
#X connect 12 0 13 0;
#X connect 13 0 7 0;
#X connect 14 0 0 0;
#X connect 15 0 3 2;
#X connect 15 0 4 2;
#X connect 15 0 5 2;
#X connect 15 0 6 2;
#X coords 0 686 1 685 85 60 0;
#X restore 581 373 pd bandfilter;
#X obj 567 349 + 2;
#N canvas 0 50 1366 686 bandfilter 0;
#X floatatom 150 318 5 0 0 0 Midi - -, f 5;
#X obj 150 342 mtof;
#X floatatom 150 369 5 0 0 0 Freq - -, f 5;
#X obj 76 474 bp~ 100 10;
#X obj 76 504 bp~ 100 10;
#X obj 166 474 bp~ 100 10;
#X obj 166 504 bp~ 100 10;
#X obj 116 616 *~;
#X obj 76 447 r~ modulator;
#X obj 166 447 r~ carrier;
#X obj 116 650 throw~ mixer;
#X obj 76 526 env~;
#X floatatom 76 548 5 0 0 0 - - -, f 5;
#X obj 76 577 dbtorms~;
#X obj 150 291 inlet;
#X obj 300 292 inlet;
#X connect 0 0 1 0;
#X connect 1 0 2 0;
#X connect 2 0 3 1;
#X connect 2 0 4 1;
#X connect 2 0 5 1;
#X connect 2 0 6 1;
#X connect 3 0 4 0;
#X connect 4 0 11 0;
#X connect 5 0 6 0;
#X connect 6 0 7 1;
#X connect 7 0 10 0;
#X connect 8 0 3 0;
#X connect 9 0 5 0;
#X connect 11 0 12 0;
#X connect 12 0 13 0;
#X connect 13 0 7 0;
#X connect 14 0 0 0;
#X connect 15 0 3 2;
#X connect 15 0 4 2;
#X connect 15 0 5 2;
#X connect 15 0 6 2;
#X coords 0 686 1 685 85 60 0;
#X restore 581 176 pd bandfilter;
#X obj 567 116 inlet;
#X connect 1 0 2 0;
#X connect 1 0 10 0;
#X connect 2 0 0 0;
#X connect 2 0 5 0;
#X connect 3 0 10 1;
#X connect 3 0 0 1;
#X connect 3 0 4 1;
#X connect 3 0 6 1;
#X connect 3 0 8 1;
#X connect 5 0 4 0;
#X connect 5 0 7 0;
#X connect 7 0 6 0;
#X connect 7 0 9 0;
#X connect 9 0 8 0;
#X connect 11 0 1 0;
#X restore 701 149 pd range;
#N canvas 0 50 1366 686 range 0;
#N canvas 0 50 1366 686 bandfilter 0;
#X floatatom 150 318 5 0 0 0 Midi - -, f 5;
#X obj 150 342 mtof;
#X floatatom 150 369 5 0 0 0 Freq - -, f 5;
#X obj 76 474 bp~ 100 10;
#X obj 76 504 bp~ 100 10;
#X obj 166 474 bp~ 100 10;
#X obj 166 504 bp~ 100 10;
#X obj 116 616 *~;
#X obj 76 447 r~ modulator;
#X obj 166 447 r~ carrier;
#X obj 116 650 throw~ mixer;
#X obj 76 526 env~;
#X floatatom 76 548 5 0 0 0 - - -, f 5;
#X obj 76 577 dbtorms~;
#X obj 150 291 inlet;
#X obj 300 292 inlet;
#X connect 0 0 1 0;
#X connect 1 0 2 0;
#X connect 2 0 3 1;
#X connect 2 0 4 1;
#X connect 2 0 5 1;
#X connect 2 0 6 1;
#X connect 3 0 4 0;
#X connect 4 0 11 0;
#X connect 5 0 6 0;
#X connect 6 0 7 1;
#X connect 7 0 10 0;
#X connect 8 0 3 0;
#X connect 9 0 5 0;
#X connect 11 0 12 0;
#X connect 12 0 13 0;
#X connect 13 0 7 0;
#X connect 14 0 0 0;
#X connect 15 0 3 2;
#X connect 15 0 4 2;
#X connect 15 0 5 2;
#X connect 15 0 6 2;
#X coords 0 686 1 685 85 60 0;
#X restore 581 223 pd bandfilter;
#X floatatom 567 153 5 0 0 0 - - -, f 5;
#X obj 567 199 + 2;
#X floatatom 678 152 5 0 0 0 - q -, f 5;
#N canvas 0 50 1366 686 bandfilter 0;
#X floatatom 150 318 5 0 0 0 Midi - -, f 5;
#X obj 150 342 mtof;
#X floatatom 150 369 5 0 0 0 Freq - -, f 5;
#X obj 76 474 bp~ 100 10;
#X obj 76 504 bp~ 100 10;
#X obj 166 474 bp~ 100 10;
#X obj 166 504 bp~ 100 10;
#X obj 116 616 *~;
#X obj 76 447 r~ modulator;
#X obj 166 447 r~ carrier;
#X obj 116 650 throw~ mixer;
#X obj 76 526 env~;
#X floatatom 76 548 5 0 0 0 - - -, f 5;
#X obj 76 577 dbtorms~;
#X obj 150 291 inlet;
#X obj 300 292 inlet;
#X connect 0 0 1 0;
#X connect 1 0 2 0;
#X connect 2 0 3 1;
#X connect 2 0 4 1;
#X connect 2 0 5 1;
#X connect 2 0 6 1;
#X connect 3 0 4 0;
#X connect 4 0 11 0;
#X connect 5 0 6 0;
#X connect 6 0 7 1;
#X connect 7 0 10 0;
#X connect 8 0 3 0;
#X connect 9 0 5 0;
#X connect 11 0 12 0;
#X connect 12 0 13 0;
#X connect 13 0 7 0;
#X connect 14 0 0 0;
#X connect 15 0 3 2;
#X connect 15 0 4 2;
#X connect 15 0 5 2;
#X connect 15 0 6 2;
#X coords 0 686 1 685 85 60 0;
#X restore 581 273 pd bandfilter;
#X obj 567 249 + 2;
#N canvas 0 50 1366 686 bandfilter 0;
#X floatatom 150 318 5 0 0 0 Midi - -, f 5;
#X obj 150 342 mtof;
#X floatatom 150 369 5 0 0 0 Freq - -, f 5;
#X obj 76 474 bp~ 100 10;
#X obj 76 504 bp~ 100 10;
#X obj 166 474 bp~ 100 10;
#X obj 166 504 bp~ 100 10;
#X obj 116 616 *~;
#X obj 76 447 r~ modulator;
#X obj 166 447 r~ carrier;
#X obj 116 650 throw~ mixer;
#X obj 76 526 env~;
#X floatatom 76 548 5 0 0 0 - - -, f 5;
#X obj 76 577 dbtorms~;
#X obj 150 291 inlet;
#X obj 300 292 inlet;
#X connect 0 0 1 0;
#X connect 1 0 2 0;
#X connect 2 0 3 1;
#X connect 2 0 4 1;
#X connect 2 0 5 1;
#X connect 2 0 6 1;
#X connect 3 0 4 0;
#X connect 4 0 11 0;
#X connect 5 0 6 0;
#X connect 6 0 7 1;
#X connect 7 0 10 0;
#X connect 8 0 3 0;
#X connect 9 0 5 0;
#X connect 11 0 12 0;
#X connect 12 0 13 0;
#X connect 13 0 7 0;
#X connect 14 0 0 0;
#X connect 15 0 3 2;
#X connect 15 0 4 2;
#X connect 15 0 5 2;
#X connect 15 0 6 2;
#X coords 0 686 1 685 85 60 0;
#X restore 581 323 pd bandfilter;
#X obj 567 299 + 2;
#N canvas 0 50 1366 686 bandfilter 0;
#X floatatom 150 318 5 0 0 0 Midi - -, f 5;
#X obj 150 342 mtof;
#X floatatom 150 369 5 0 0 0 Freq - -, f 5;
#X obj 76 474 bp~ 100 10;
#X obj 76 504 bp~ 100 10;
#X obj 166 474 bp~ 100 10;
#X obj 166 504 bp~ 100 10;
#X obj 116 616 *~;
#X obj 76 447 r~ modulator;
#X obj 166 447 r~ carrier;
#X obj 116 650 throw~ mixer;
#X obj 76 526 env~;
#X floatatom 76 548 5 0 0 0 - - -, f 5;
#X obj 76 577 dbtorms~;
#X obj 150 291 inlet;
#X obj 300 292 inlet;
#X connect 0 0 1 0;
#X connect 1 0 2 0;
#X connect 2 0 3 1;
#X connect 2 0 4 1;
#X connect 2 0 5 1;
#X connect 2 0 6 1;
#X connect 3 0 4 0;
#X connect 4 0 11 0;
#X connect 5 0 6 0;
#X connect 6 0 7 1;
#X connect 7 0 10 0;
#X connect 8 0 3 0;
#X connect 9 0 5 0;
#X connect 11 0 12 0;
#X connect 12 0 13 0;
#X connect 13 0 7 0;
#X connect 14 0 0 0;
#X connect 15 0 3 2;
#X connect 15 0 4 2;
#X connect 15 0 5 2;
#X connect 15 0 6 2;
#X coords 0 686 1 685 85 60 0;
#X restore 581 373 pd bandfilter;
#X obj 567 349 + 2;
#N canvas 0 50 1366 686 bandfilter 0;
#X floatatom 150 318 5 0 0 0 Midi - -, f 5;
#X obj 150 342 mtof;
#X floatatom 150 369 5 0 0 0 Freq - -, f 5;
#X obj 76 474 bp~ 100 10;
#X obj 76 504 bp~ 100 10;
#X obj 166 474 bp~ 100 10;
#X obj 166 504 bp~ 100 10;
#X obj 116 616 *~;
#X obj 76 447 r~ modulator;
#X obj 166 447 r~ carrier;
#X obj 116 650 throw~ mixer;
#X obj 76 526 env~;
#X floatatom 76 548 5 0 0 0 - - -, f 5;
#X obj 76 577 dbtorms~;
#X obj 150 291 inlet;
#X obj 300 292 inlet;
#X connect 0 0 1 0;
#X connect 1 0 2 0;
#X connect 2 0 3 1;
#X connect 2 0 4 1;
#X connect 2 0 5 1;
#X connect 2 0 6 1;
#X connect 3 0 4 0;
#X connect 4 0 11 0;
#X connect 5 0 6 0;
#X connect 6 0 7 1;
#X connect 7 0 10 0;
#X connect 8 0 3 0;
#X connect 9 0 5 0;
#X connect 11 0 12 0;
#X connect 12 0 13 0;
#X connect 13 0 7 0;
#X connect 14 0 0 0;
#X connect 15 0 3 2;
#X connect 15 0 4 2;
#X connect 15 0 5 2;
#X connect 15 0 6 2;
#X coords 0 686 1 685 85 60 0;
#X restore 581 176 pd bandfilter;
#X obj 567 116 inlet;
#X connect 1 0 2 0;
#X connect 1 0 10 0;
#X connect 2 0 0 0;
#X connect 2 0 5 0;
#X connect 3 0 10 1;
#X connect 3 0 0 1;
#X connect 3 0 4 1;
#X connect 3 0 6 1;
#X connect 3 0 8 1;
#X connect 5 0 4 0;
#X connect 5 0 7 0;
#X connect 7 0 6 0;
#X connect 7 0 9 0;
#X connect 9 0 8 0;
#X connect 11 0 1 0;
#X restore 761 149 pd range;
#N canvas 0 50 1366 686 range 0;
#N canvas 0 50 1366 686 bandfilter 0;
#X floatatom 150 318 5 0 0 0 Midi - -, f 5;
#X obj 150 342 mtof;
#X floatatom 150 369 5 0 0 0 Freq - -, f 5;
#X obj 76 474 bp~ 100 10;
#X obj 76 504 bp~ 100 10;
#X obj 166 474 bp~ 100 10;
#X obj 166 504 bp~ 100 10;
#X obj 116 616 *~;
#X obj 76 447 r~ modulator;
#X obj 166 447 r~ carrier;
#X obj 116 650 throw~ mixer;
#X obj 76 526 env~;
#X floatatom 76 548 5 0 0 0 - - -, f 5;
#X obj 76 577 dbtorms~;
#X obj 150 291 inlet;
#X obj 300 292 inlet;
#X connect 0 0 1 0;
#X connect 1 0 2 0;
#X connect 2 0 3 1;
#X connect 2 0 4 1;
#X connect 2 0 5 1;
#X connect 2 0 6 1;
#X connect 3 0 4 0;
#X connect 4 0 11 0;
#X connect 5 0 6 0;
#X connect 6 0 7 1;
#X connect 7 0 10 0;
#X connect 8 0 3 0;
#X connect 9 0 5 0;
#X connect 11 0 12 0;
#X connect 12 0 13 0;
#X connect 13 0 7 0;
#X connect 14 0 0 0;
#X connect 15 0 3 2;
#X connect 15 0 4 2;
#X connect 15 0 5 2;
#X connect 15 0 6 2;
#X coords 0 686 1 685 85 60 0;
#X restore 581 223 pd bandfilter;
#X floatatom 567 153 5 0 0 0 - - -, f 5;
#X obj 567 199 + 2;
#X floatatom 678 152 5 0 0 0 - q -, f 5;
#N canvas 0 50 1366 686 bandfilter 0;
#X floatatom 150 318 5 0 0 0 Midi - -, f 5;
#X obj 150 342 mtof;
#X floatatom 150 369 5 0 0 0 Freq - -, f 5;
#X obj 76 474 bp~ 100 10;
#X obj 76 504 bp~ 100 10;
#X obj 166 474 bp~ 100 10;
#X obj 166 504 bp~ 100 10;
#X obj 116 616 *~;
#X obj 76 447 r~ modulator;
#X obj 166 447 r~ carrier;
#X obj 116 650 throw~ mixer;
#X obj 76 526 env~;
#X floatatom 76 548 5 0 0 0 - - -, f 5;
#X obj 76 577 dbtorms~;
#X obj 150 291 inlet;
#X obj 300 292 inlet;
#X connect 0 0 1 0;
#X connect 1 0 2 0;
#X connect 2 0 3 1;
#X connect 2 0 4 1;
#X connect 2 0 5 1;
#X connect 2 0 6 1;
#X connect 3 0 4 0;
#X connect 4 0 11 0;
#X connect 5 0 6 0;
#X connect 6 0 7 1;
#X connect 7 0 10 0;
#X connect 8 0 3 0;
#X connect 9 0 5 0;
#X connect 11 0 12 0;
#X connect 12 0 13 0;
#X connect 13 0 7 0;
#X connect 14 0 0 0;
#X connect 15 0 3 2;
#X connect 15 0 4 2;
#X connect 15 0 5 2;
#X connect 15 0 6 2;
#X coords 0 686 1 685 85 60 0;
#X restore 581 273 pd bandfilter;
#X obj 567 249 + 2;
#N canvas 0 50 1366 686 bandfilter 0;
#X floatatom 150 318 5 0 0 0 Midi - -, f 5;
#X obj 150 342 mtof;
#X floatatom 150 369 5 0 0 0 Freq - -, f 5;
#X obj 76 474 bp~ 100 10;
#X obj 76 504 bp~ 100 10;
#X obj 166 474 bp~ 100 10;
#X obj 166 504 bp~ 100 10;
#X obj 116 616 *~;
#X obj 76 447 r~ modulator;
#X obj 166 447 r~ carrier;
#X obj 116 650 throw~ mixer;
#X obj 76 526 env~;
#X floatatom 76 548 5 0 0 0 - - -, f 5;
#X obj 76 577 dbtorms~;
#X obj 150 291 inlet;
#X obj 300 292 inlet;
#X connect 0 0 1 0;
#X connect 1 0 2 0;
#X connect 2 0 3 1;
#X connect 2 0 4 1;
#X connect 2 0 5 1;
#X connect 2 0 6 1;
#X connect 3 0 4 0;
#X connect 4 0 11 0;
#X connect 5 0 6 0;
#X connect 6 0 7 1;
#X connect 7 0 10 0;
#X connect 8 0 3 0;
#X connect 9 0 5 0;
#X connect 11 0 12 0;
#X connect 12 0 13 0;
#X connect 13 0 7 0;
#X connect 14 0 0 0;
#X connect 15 0 3 2;
#X connect 15 0 4 2;
#X connect 15 0 5 2;
#X connect 15 0 6 2;
#X coords 0 686 1 685 85 60 0;
#X restore 581 323 pd bandfilter;
#X obj 567 299 + 2;
#N canvas 0 50 1366 686 bandfilter 0;
#X floatatom 150 318 5 0 0 0 Midi - -, f 5;
#X obj 150 342 mtof;
#X floatatom 150 369 5 0 0 0 Freq - -, f 5;
#X obj 76 474 bp~ 100 10;
#X obj 76 504 bp~ 100 10;
#X obj 166 474 bp~ 100 10;
#X obj 166 504 bp~ 100 10;
#X obj 116 616 *~;
#X obj 76 447 r~ modulator;
#X obj 166 447 r~ carrier;
#X obj 116 650 throw~ mixer;
#X obj 76 526 env~;
#X floatatom 76 548 5 0 0 0 - - -, f 5;
#X obj 76 577 dbtorms~;
#X obj 150 291 inlet;
#X obj 300 292 inlet;
#X connect 0 0 1 0;
#X connect 1 0 2 0;
#X connect 2 0 3 1;
#X connect 2 0 4 1;
#X connect 2 0 5 1;
#X connect 2 0 6 1;
#X connect 3 0 4 0;
#X connect 4 0 11 0;
#X connect 5 0 6 0;
#X connect 6 0 7 1;
#X connect 7 0 10 0;
#X connect 8 0 3 0;
#X connect 9 0 5 0;
#X connect 11 0 12 0;
#X connect 12 0 13 0;
#X connect 13 0 7 0;
#X connect 14 0 0 0;
#X connect 15 0 3 2;
#X connect 15 0 4 2;
#X connect 15 0 5 2;
#X connect 15 0 6 2;
#X coords 0 686 1 685 85 60 0;
#X restore 581 373 pd bandfilter;
#X obj 567 349 + 2;
#N canvas 0 50 1366 686 bandfilter 0;
#X floatatom 150 318 5 0 0 0 Midi - -, f 5;
#X obj 150 342 mtof;
#X floatatom 150 369 5 0 0 0 Freq - -, f 5;
#X obj 76 474 bp~ 100 10;
#X obj 76 504 bp~ 100 10;
#X obj 166 474 bp~ 100 10;
#X obj 166 504 bp~ 100 10;
#X obj 116 616 *~;
#X obj 76 447 r~ modulator;
#X obj 166 447 r~ carrier;
#X obj 116 650 throw~ mixer;
#X obj 76 526 env~;
#X floatatom 76 548 5 0 0 0 - - -, f 5;
#X obj 76 577 dbtorms~;
#X obj 150 291 inlet;
#X obj 300 292 inlet;
#X connect 0 0 1 0;
#X connect 1 0 2 0;
#X connect 2 0 3 1;
#X connect 2 0 4 1;
#X connect 2 0 5 1;
#X connect 2 0 6 1;
#X connect 3 0 4 0;
#X connect 4 0 11 0;
#X connect 5 0 6 0;
#X connect 6 0 7 1;
#X connect 7 0 10 0;
#X connect 8 0 3 0;
#X connect 9 0 5 0;
#X connect 11 0 12 0;
#X connect 12 0 13 0;
#X connect 13 0 7 0;
#X connect 14 0 0 0;
#X connect 15 0 3 2;
#X connect 15 0 4 2;
#X connect 15 0 5 2;
#X connect 15 0 6 2;
#X coords 0 686 1 685 85 60 0;
#X restore 581 176 pd bandfilter;
#X obj 567 116 inlet;
#X connect 1 0 2 0;
#X connect 1 0 10 0;
#X connect 2 0 0 0;
#X connect 2 0 5 0;
#X connect 3 0 10 1;
#X connect 3 0 0 1;
#X connect 3 0 4 1;
#X connect 3 0 6 1;
#X connect 3 0 8 1;
#X connect 5 0 4 0;
#X connect 5 0 7 0;
#X connect 7 0 6 0;
#X connect 7 0 9 0;
#X connect 9 0 8 0;
#X connect 11 0 1 0;
#X restore 821 149 pd range;
#X msg 461 124 40;
#X msg 521 124 50;
#X msg 581 124 60;
#X msg 641 124 70;
#X msg 701 124 80;
#X msg 761 124 90;
#X msg 821 124 100;
#X obj 645 -64 loadbang;
#X floatatom 104 147 5 0 0 1 BP_resonance - q, f 5;
#X msg 263 116 60;
#X connect 0 0 6 0;
#X connect 1 0 3 0;
#X connect 3 0 2 0;
#X connect 4 0 3 1;
#X connect 5 0 4 0;
#X connect 8 0 11 0;
#X connect 9 0 8 0;
#X connect 10 0 8 1;
#X connect 11 0 13 0;
#X connect 12 0 11 1;
#X connect 12 0 13 1;
#X connect 13 0 7 0;
#X connect 13 0 7 1;
#X connect 14 0 12 0;
#X connect 15 0 10 0;
#X connect 17 0 16 0;
#X connect 25 0 18 0;
#X connect 26 0 19 0;
#X connect 27 0 20 0;
#X connect 28 0 21 0;
#X connect 29 0 22 0;
#X connect 30 0 23 0;
#X connect 31 0 24 0;
#X connect 32 0 17 0;
#X connect 32 0 25 0;
#X connect 32 0 26 0;
#X connect 32 0 27 0;
#X connect 32 0 28 0;
#X connect 32 0 29 0;
#X connect 32 0 30 0;
#X connect 32 0 31 0;
#X connect 32 0 5 0;
#X connect 32 0 15 0;
#X connect 32 0 14 0;
#X connect 32 0 34 0;
#X connect 34 0 33 0;
#X coords 0 -1 1 1 115 80 1 100 100;
#X restore 68 237 pd vocoder;
#X connect 0 0 2 0;
#X connect 1 0 2 1;
